<svg width="512" height="512" viewBox="0 0 512 512" fill="none" xmlns="http://www.w3.org/2000/svg">
<path d="M256 512C397.385 512 512 397.385 512 256C512 114.615 397.385 0 256 0C114.615 0 0 114.615 0 256C0 397.385 114.615 512 256 512Z" fill="#171717"/>
<path d="M256 495.014C388.004 495.014 495.014 388.004 495.014 256C495.014 123.996 388.004 16.9859 256 16.9859C123.996 16.9859 16.9858 123.996 16.9858 256C16.9858 388.004 123.996 495.014 256 495.014Z" fill="#232F32"/>
<path d="M448.537 256C448.538 149.836 362.166 63.4619 256 63.4629V42.5649C373.689 42.5649 469.435 138.313 469.435 256H448.537Z" fill="#DF3030"/>
<path d="M105.149 406.85C66.5015 368.202 42.564 314.843 42.564 256H63.463C63.463 362.166 149.836 448.538 256 448.537V469.436C197.156 469.435 143.797 445.499 105.149 406.85Z" fill="#DF3030"/>
<path d="M256 389.26C329.597 389.26 389.26 329.597 389.26 256C389.26 182.403 329.597 122.74 256 122.74C182.403 122.74 122.74 182.403 122.74 256C122.74 329.597 182.403 389.26 256 389.26Z" fill="#232C31"/>
<path d="M256 427.423C350.674 427.423 427.423 350.674 427.423 256C427.423 161.326 350.674 84.5772 256 84.5772C161.326 84.5772 84.5771 161.326 84.5771 256C84.5771 350.674 161.326 427.423 256 427.423Z" fill="#1E2223"/>
<path d="M256 387.675C328.722 387.675 387.675 328.722 387.675 256C387.675 183.278 328.722 124.325 256 124.325C183.278 124.325 124.325 183.278 124.325 256C124.325 328.722 183.278 387.675 256 387.675Z" fill="#171717"/>
<path d="M362.604 255.999C362.604 262.603 361.997 269.071 360.848 275.35C359.824 280.951 358.361 286.405 356.48 291.661C352.092 304.043 345.478 315.38 337.108 325.171C333.451 329.455 329.459 333.457 325.175 337.104C315.374 345.474 304.047 352.098 291.655 356.487C286.399 358.357 280.955 359.82 275.355 360.844C269.075 361.993 262.607 362.599 256.003 362.599C249.389 362.599 242.921 361.993 236.641 360.844C231.04 359.82 225.596 358.357 220.341 356.476C207.959 352.098 196.632 345.474 186.831 337.104C182.536 333.457 178.545 329.466 174.888 325.171C166.518 315.38 159.904 304.054 155.515 291.672C153.645 286.416 152.172 280.962 151.148 275.35C149.998 269.071 149.392 262.603 149.392 255.999C149.392 249.395 149.998 242.927 151.148 236.647C152.172 231.036 153.645 225.582 155.515 220.326C159.904 207.944 166.518 196.617 174.888 186.827C178.545 182.532 182.536 178.541 186.831 174.894C196.632 166.524 207.959 159.9 220.341 155.522C225.596 153.641 231.04 152.178 236.641 151.154C242.921 150.004 249.389 149.398 256.003 149.398C262.607 149.398 269.075 150.004 275.355 151.154C280.955 152.178 286.399 153.641 291.655 155.511C304.047 159.9 315.374 166.524 325.175 174.894C329.459 178.541 333.451 182.543 337.108 186.827C345.478 196.617 352.092 207.955 356.48 220.337C358.361 225.592 359.824 231.047 360.848 236.647C361.997 242.927 362.604 249.395 362.604 255.999Z" fill="#171717"/>
<path d="M271.126 255.999C271.126 256.936 271.04 257.854 270.877 258.745C270.732 259.54 270.524 260.313 270.258 261.059C269.635 262.817 268.696 264.425 267.508 265.815C266.989 266.423 266.423 266.99 265.815 267.508C264.424 268.697 262.817 269.636 261.058 270.259C260.312 270.524 259.54 270.732 258.745 270.877C257.854 271.04 256.936 271.126 255.999 271.126C255.061 271.126 254.142 271.04 253.252 270.877C252.457 270.732 251.685 270.524 250.938 270.258C249.181 269.636 247.574 268.697 246.183 267.508C245.574 266.991 245.008 266.425 244.488 265.815C243.3 264.425 242.362 262.818 241.739 261.061C241.474 260.315 241.265 259.541 241.12 258.745C240.957 257.854 240.871 256.936 240.871 255.999C240.871 255.062 240.957 254.144 241.12 253.253C241.265 252.457 241.474 251.682 241.739 250.936C242.362 249.179 243.3 247.572 244.488 246.183C245.008 245.574 245.574 245.008 246.183 244.489C247.574 243.301 249.181 242.362 250.938 241.74C251.685 241.474 252.457 241.266 253.252 241.121C254.143 240.958 255.061 240.872 255.999 240.872C256.936 240.872 257.854 240.958 258.745 241.121C259.54 241.266 260.312 241.474 261.058 241.739C262.817 242.362 264.424 243.302 265.815 244.489C266.423 245.007 266.989 245.575 267.508 246.183C268.696 247.573 269.635 249.181 270.258 250.938C270.524 251.685 270.732 252.459 270.877 253.253C271.04 254.144 271.126 255.062 271.126 255.999V255.999Z" fill="white"/>
<path d="M275.355 360.844C269.075 361.993 262.607 362.599 256.003 362.599C249.389 362.599 242.921 361.993 236.641 360.844L246.139 304.263C248.01 293.145 263.986 293.145 265.856 304.263L275.355 360.844Z" fill="white"/>
<path d="M275.355 151.154L265.856 207.735C263.986 218.853 248.01 218.853 246.139 207.735L236.641 151.154C242.921 150.004 249.389 149.398 256.003 149.398C262.607 149.398 269.075 150.004 275.355 151.154Z" fill="white"/>
<path d="M325.175 337.104C315.374 345.474 304.047 352.098 291.655 356.487L271.593 302.727C267.654 292.163 281.488 284.18 288.667 292.873L325.175 337.104Z" fill="white"/>
<path d="M223.329 219.124L186.831 174.894C196.632 166.524 207.959 159.9 220.341 155.522L240.403 209.271C244.342 219.835 230.508 227.828 223.329 219.124V219.124Z" fill="white"/>
<path d="M356.48 291.661C352.092 304.043 345.478 315.381 337.108 325.171L292.867 288.673C284.173 281.495 292.167 267.65 302.731 271.599L356.48 291.661Z" fill="white"/>
<path d="M209.275 240.399L155.515 220.326C159.904 207.944 166.518 196.617 174.888 186.827L219.129 223.335C227.822 230.503 219.839 244.348 209.275 240.399V240.399Z" fill="white"/>
<path d="M362.603 255.999C362.603 262.603 361.997 269.071 360.848 275.35L304.267 265.852C293.149 263.992 293.149 248.005 304.267 246.146L360.848 236.647C361.997 242.927 362.603 249.395 362.603 255.999V255.999Z" fill="white"/>
<path d="M207.729 265.852L151.148 275.35C149.998 269.071 149.392 262.603 149.392 255.999C149.392 249.395 149.998 242.927 151.148 236.647L207.729 246.146C218.857 248.005 218.857 263.992 207.729 265.852V265.852Z" fill="white"/>
<path d="M356.48 220.337L302.731 240.399C292.167 244.348 284.173 230.503 292.867 223.335L337.108 186.827C345.478 196.617 352.092 207.955 356.48 220.337V220.337Z" fill="white"/>
<path d="M219.129 288.673L174.888 325.171C166.518 315.381 159.904 304.054 155.515 291.672L209.275 271.599C219.839 267.65 227.822 281.495 219.129 288.673V288.673Z" fill="white"/>
<path d="M325.175 174.894L288.667 219.124C281.488 227.828 267.654 219.835 271.593 209.271L291.655 155.511C304.047 159.9 315.374 166.524 325.175 174.894V174.894Z" fill="white"/>
<path d="M240.403 302.727L220.341 356.476C207.959 352.098 196.632 345.474 186.831 337.104L223.329 292.873C230.508 284.18 244.342 292.163 240.403 302.727V302.727Z" fill="white"/>
</svg>
